# xmcd
#
# Track frame offsets: 
#        150
#        20440
#        36963
#        56658
#        72528
#        83583
#        92288
#        106643
#
# Disc length: 1590 seconds
#
# Revision: 2
# Processed by: cddbd v1.5.2PL0 Copyright (c) Steve Scherf et al.
# Submitted via: ExactAudioCopy v0.99pb4
#
DISCID=58063408
DTITLE=Billie Holiday - God Bless The Child
DYEAR=1992
DGENRE=Blues
TTITLE0=(I Don't Stand) A Ghost Of A Chance (With You)
TTITLE1=I Cover The Waterfront
TTITLE2=Please Don't Talk About Me (When I'm Gone)
TTITLE3=Don't Explain
TTITLE4=Now Or Never
TTITLE5=Miss Brown To You
TTITLE6=He's Funny That Way
TTITLE7=God Bless The Child
EXTD=
EXTT0=
EXTT1=
EXTT2=
EXTT3=
EXTT4=
EXTT5=
EXTT6=
EXTT7=
PLAYORDER=
